<svg width="16" height="17" viewBox="0 0 16 17" fill="none" xmlns="http://www.w3.org/2000/svg">
<g clip-path="url(#clip0_2339_60705)">
<path d="M7.93798 2.51742C7.95758 2.50667 7.97962 2.50116 8.00198 2.50142C8.02399 2.50133 8.04567 2.50683 8.06498 2.51742C8.08784 2.53113 8.10652 2.55084 8.11898 2.57442L14.976 14.2414C15.012 14.3014 15.011 14.3654 14.978 14.4244C14.9653 14.4486 14.9467 14.4693 14.924 14.4844C14.9042 14.4966 14.8812 14.5025 14.858 14.5014H1.14598C1.12276 14.5025 1.09975 14.4966 1.07998 14.4844C1.05723 14.4693 1.03866 14.4486 1.02598 14.4244C1.0095 14.3967 1.00097 14.3649 1.00132 14.3326C1.00167 14.3004 1.01089 14.2688 1.02798 14.2414L7.88398 2.57442C7.89648 2.55087 7.91514 2.53117 7.93798 2.51742ZM8.98198 2.06742C8.88299 1.89498 8.74025 1.75172 8.56818 1.65209C8.39611 1.55246 8.20081 1.5 8.00198 1.5C7.80315 1.5 7.60784 1.55246 7.43577 1.65209C7.2637 1.75172 7.12097 1.89498 7.02198 2.06742L0.164976 13.7344C-0.292024 14.5124 0.255976 15.5014 1.14498 15.5014H14.858C15.747 15.5014 16.296 14.5114 15.838 13.7344L8.98198 2.06742Z" fill="#1C2026"/>
<path d="M7.00198 12.5011C7.00198 12.3698 7.02785 12.2397 7.0781 12.1184C7.12836 11.9971 7.20202 11.8868 7.29488 11.794C7.38774 11.7011 7.49797 11.6275 7.6193 11.5772C7.74063 11.527 7.87066 11.5011 8.00198 11.5011C8.13331 11.5011 8.26334 11.527 8.38467 11.5772C8.50599 11.6275 8.61623 11.7011 8.70909 11.794C8.80195 11.8868 8.87561 11.9971 8.92586 12.1184C8.97612 12.2397 9.00198 12.3698 9.00198 12.5011C9.00198 12.7663 8.89663 13.0207 8.70909 13.2082C8.52155 13.3957 8.2672 13.5011 8.00198 13.5011C7.73677 13.5011 7.48241 13.3957 7.29488 13.2082C7.10734 13.0207 7.00198 12.7663 7.00198 12.5011ZM7.09998 6.49609C7.08667 6.36993 7.10002 6.24239 7.13918 6.12172C7.17835 6.00106 7.24244 5.88998 7.3273 5.79568C7.41217 5.70139 7.51591 5.62599 7.63179 5.57438C7.74768 5.52276 7.87312 5.49609 7.99998 5.49609C8.12684 5.49609 8.25229 5.52276 8.36817 5.57438C8.48406 5.62599 8.5878 5.70139 8.67266 5.79568C8.75753 5.88998 8.82162 6.00106 8.86078 6.12172C8.89995 6.24239 8.9133 6.36993 8.89998 6.49609L8.54998 10.0031C8.53822 10.1409 8.47519 10.2692 8.37334 10.3627C8.27149 10.4563 8.13826 10.5081 7.99998 10.5081C7.86171 10.5081 7.72847 10.4563 7.62663 10.3627C7.52478 10.2692 7.46174 10.1409 7.44998 10.0031L7.09998 6.49609Z" fill="#1C2026"/>
</g>
<defs>
<clipPath id="clip0_2339_60705">
<rect width="16" height="16" fill="white" transform="translate(0 0.5)"/>
</clipPath>
</defs>
</svg>
