<svg width="40" height="40" viewBox="0 0 40 40" fill="none" xmlns="http://www.w3.org/2000/svg">
<path d="M14.969 14.9703C15.0387 14.9005 15.1214 14.8451 15.2125 14.8073C15.3037 14.7695 15.4013 14.75 15.5 14.75C15.5986 14.75 15.6963 14.7695 15.7874 14.8073C15.8786 14.8451 15.9613 14.9005 16.031 14.9703L20 18.9408L23.969 14.9703C24.0387 14.9006 24.1215 14.8453 24.2126 14.8076C24.3037 14.7698 24.4014 14.7504 24.5 14.7504C24.5986 14.7504 24.6963 14.7698 24.7874 14.8076C24.8785 14.8453 24.9613 14.9006 25.031 14.9703C25.1007 15.0401 25.156 15.1229 25.1938 15.214C25.2315 15.3051 25.2509 15.4027 25.2509 15.5013C25.2509 15.6 25.2315 15.6976 25.1938 15.7887C25.156 15.8798 25.1007 15.9626 25.031 16.0323L21.0605 20.0013L25.031 23.9703C25.1007 24.0401 25.156 24.1229 25.1938 24.214C25.2315 24.3051 25.2509 24.4027 25.2509 24.5013C25.2509 24.6 25.2315 24.6976 25.1938 24.7887C25.156 24.8798 25.1007 24.9626 25.031 25.0323C24.9613 25.1021 24.8785 25.1574 24.7874 25.1951C24.6963 25.2329 24.5986 25.2523 24.5 25.2523C24.4014 25.2523 24.3037 25.2329 24.2126 25.1951C24.1215 25.1574 24.0387 25.1021 23.969 25.0323L20 21.0618L16.031 25.0323C15.9613 25.1021 15.8785 25.1574 15.7874 25.1951C15.6963 25.2329 15.5986 25.2523 15.5 25.2523C15.4014 25.2523 15.3037 25.2329 15.2126 25.1951C15.1215 25.1574 15.0387 25.1021 14.969 25.0323C14.8993 24.9626 14.844 24.8798 14.8062 24.7887C14.7685 24.6976 14.749 24.6 14.749 24.5013C14.749 24.4027 14.7685 24.3051 14.8062 24.214C14.844 24.1229 14.8993 24.0401 14.969 23.9703L18.9395 20.0013L14.969 16.0323C14.8992 15.9627 14.8437 15.8799 14.8059 15.7888C14.7681 15.6977 14.7487 15.6 14.7487 15.5013C14.7487 15.4027 14.7681 15.305 14.8059 15.2139C14.8437 15.1228 14.8992 15.04 14.969 14.9703Z" fill="black"/>
</svg>
