<svg width="16" height="16" viewBox="0 0 16 16" fill="none" xmlns="http://www.w3.org/2000/svg">
<path d="M10.9706 4.97243C11.1115 4.83832 11.299 4.76417 11.4935 4.76565C11.688 4.76712 11.8743 4.84409 12.0131 4.98032C12.1519 5.11654 12.2324 5.30137 12.2375 5.4958C12.2427 5.69023 12.1721 5.87906 12.0406 6.02243L8.05065 11.0124C7.98204 11.0863 7.89923 11.1456 7.80718 11.1868C7.71513 11.228 7.61572 11.2501 7.5149 11.252C7.41408 11.2539 7.31392 11.2354 7.2204 11.1977C7.12689 11.1599 7.04194 11.1037 6.97065 11.0324L4.32465 8.38643C4.25096 8.31777 4.19186 8.23497 4.15086 8.14297C4.10987 8.05097 4.08783 7.95165 4.08605 7.85095C4.08428 7.75025 4.1028 7.65022 4.14052 7.55683C4.17824 7.46344 4.23439 7.37861 4.30561 7.30739C4.37683 7.23617 4.46166 7.18003 4.55505 7.14231C4.64844 7.10458 4.74847 7.08606 4.84917 7.08784C4.94987 7.08961 5.04918 7.11166 5.14118 7.15265C5.23318 7.19364 5.31598 7.25274 5.38465 7.32643L7.47865 9.41943L10.9516 4.99443C10.9579 4.98673 10.9646 4.97938 10.9716 4.97243H10.9706Z" fill="#6B7794"/>
</svg>
