<svg width="17" height="16" viewBox="0 0 17 16" fill="none" xmlns="http://www.w3.org/2000/svg">
<path d="M11.4699 4.97047C11.6108 4.83636 11.7982 4.76222 11.9927 4.76369C12.1872 4.76516 12.3735 4.84214 12.5124 4.97836C12.6512 5.11459 12.7317 5.29942 12.7368 5.49385C12.7419 5.68828 12.6713 5.8771 12.5399 6.02048L8.54991 11.0105C8.4813 11.0844 8.3985 11.1437 8.30645 11.1848C8.21439 11.226 8.11498 11.2482 8.01416 11.2501C7.91334 11.2519 7.81318 11.2334 7.71967 11.1957C7.62616 11.158 7.54121 11.1018 7.46991 11.0305L4.82391 8.38448C4.75023 8.31581 4.69112 8.23301 4.65013 8.14101C4.60914 8.04901 4.5871 7.9497 4.58532 7.849C4.58355 7.7483 4.60207 7.64827 4.63979 7.55488C4.67751 7.46149 4.73366 7.37666 4.80488 7.30544C4.87609 7.23422 4.96093 7.17807 5.05432 7.14035C5.1477 7.10263 5.24773 7.08411 5.34844 7.08588C5.44914 7.08766 5.54845 7.1097 5.64045 7.15069C5.73245 7.19169 5.81525 7.25079 5.88391 7.32448L7.97791 9.41748L11.4509 4.99248C11.4572 4.98478 11.4638 4.97743 11.4709 4.97047H11.4699Z" fill="#189FAC"/>
</svg>
