<svg width="32" height="32" viewBox="0 0 32 32" fill="none" xmlns="http://www.w3.org/2000/svg">
<g opacity="0.8">
<path d="M13.5 13.5C13.6326 13.5 13.7598 13.5527 13.8536 13.6464C13.9473 13.7402 14 13.8674 14 14V20C14 20.1326 13.9473 20.2598 13.8536 20.3536C13.7598 20.4473 13.6326 20.5 13.5 20.5C13.3674 20.5 13.2402 20.4473 13.1464 20.3536C13.0527 20.2598 13 20.1326 13 20V14C13 13.8674 13.0527 13.7402 13.1464 13.6464C13.2402 13.5527 13.3674 13.5 13.5 13.5ZM16 13.5C16.1326 13.5 16.2598 13.5527 16.3536 13.6464C16.4473 13.7402 16.5 13.8674 16.5 14V20C16.5 20.1326 16.4473 20.2598 16.3536 20.3536C16.2598 20.4473 16.1326 20.5 16 20.5C15.8674 20.5 15.7402 20.4473 15.6464 20.3536C15.5527 20.2598 15.5 20.1326 15.5 20V14C15.5 13.8674 15.5527 13.7402 15.6464 13.6464C15.7402 13.5527 15.8674 13.5 16 13.5ZM19 14C19 13.8674 18.9473 13.7402 18.8536 13.6464C18.7598 13.5527 18.6326 13.5 18.5 13.5C18.3674 13.5 18.2402 13.5527 18.1464 13.6464C18.0527 13.7402 18 13.8674 18 14V20C18 20.1326 18.0527 20.2598 18.1464 20.3536C18.2402 20.4473 18.3674 20.5 18.5 20.5C18.6326 20.5 18.7598 20.4473 18.8536 20.3536C18.9473 20.2598 19 20.1326 19 20V14Z" fill="black"/>
<path fill-rule="evenodd" clip-rule="evenodd" d="M22.5 11C22.5 11.2652 22.3946 11.5196 22.2071 11.7071C22.0196 11.8946 21.7652 12 21.5 12H21V21C21 21.5304 20.7893 22.0391 20.4142 22.4142C20.0391 22.7893 19.5304 23 19 23H13C12.4696 23 11.9609 22.7893 11.5858 22.4142C11.2107 22.0391 11 21.5304 11 21V12H10.5C10.2348 12 9.98043 11.8946 9.79289 11.7071C9.60536 11.5196 9.5 11.2652 9.5 11V10C9.5 9.73478 9.60536 9.48043 9.79289 9.29289C9.98043 9.10536 10.2348 9 10.5 9H14C14 8.73478 14.1054 8.48043 14.2929 8.29289C14.4804 8.10536 14.7348 8 15 8H17C17.2652 8 17.5196 8.10536 17.7071 8.29289C17.8946 8.48043 18 8.73478 18 9H21.5C21.7652 9 22.0196 9.10536 22.2071 9.29289C22.3946 9.48043 22.5 9.73478 22.5 10V11ZM12.118 12L12 12.059V21C12 21.2652 12.1054 21.5196 12.2929 21.7071C12.4804 21.8946 12.7348 22 13 22H19C19.2652 22 19.5196 21.8946 19.7071 21.7071C19.8946 21.5196 20 21.2652 20 21V12.059L19.882 12H12.118ZM10.5 11V10H21.5V11H10.5Z" fill="black"/>
</g>
</svg>
