<svg width="9" height="8" viewBox="0 0 9 8" fill="none" xmlns="http://www.w3.org/2000/svg">
<path d="M6.96967 0.970475C7.11054 0.836364 7.298 0.762222 7.49249 0.763693C7.68698 0.765165 7.87329 0.842135 8.01212 0.978363C8.15094 1.11459 8.23141 1.29942 8.23655 1.49385C8.24169 1.68828 8.1711 1.8771 8.03967 2.02048L4.04967 7.01048C3.98106 7.08437 3.89825 7.14368 3.8062 7.18484C3.71415 7.22601 3.61474 7.24819 3.51392 7.25005C3.4131 7.25192 3.31294 7.23344 3.21943 7.19571C3.12591 7.15798 3.04097 7.10178 2.96967 7.03048L0.323669 4.38448C0.249983 4.31581 0.19088 4.23301 0.149888 4.14101C0.108896 4.04901 0.0868544 3.9497 0.0850777 3.849C0.0833009 3.7483 0.101826 3.64827 0.139547 3.55488C0.177268 3.46149 0.233412 3.37666 0.304631 3.30544C0.37585 3.23422 0.460684 3.17807 0.554072 3.14035C0.64746 3.10263 0.747489 3.08411 0.848192 3.08588C0.948895 3.08766 1.04821 3.1097 1.14021 3.15069C1.23221 3.19169 1.31501 3.25079 1.38367 3.32448L3.47767 5.41748L6.95067 0.992475C6.95692 0.984776 6.9636 0.977431 6.97067 0.970475H6.96967Z" fill="#6B7794"/>
</svg>
