<svg width="16px" height="16px" viewBox="0 0 16 16" fill="none" xmlns="http://www.w3.org/2000/svg">
<path fill-rule="evenodd" clip-rule="evenodd" d="M2.10335 4.71492C2.14885 4.66932 2.20289 4.63313 2.26239 4.60844C2.32189 4.58375 2.38567 4.57104 2.45009 4.57104C2.51451 4.57104 2.57829 4.58375 2.63779 4.60844C2.69729 4.63313 2.75134 4.66932 2.79683 4.71492L8.327 10.2461L13.8572 4.71492C13.9027 4.66939 13.9568 4.63327 14.0163 4.60863C14.0757 4.58398 14.1395 4.5713 14.2039 4.5713C14.2683 4.5713 14.3321 4.58398 14.3916 4.60863C14.4511 4.63327 14.5051 4.66939 14.5506 4.71492C14.5962 4.76046 14.6323 4.81452 14.6569 4.87401C14.6816 4.9335 14.6943 4.99727 14.6943 5.06166C14.6943 5.12606 14.6816 5.18982 14.6569 5.24932C14.6323 5.30881 14.5962 5.36287 14.5506 5.4084L8.67374 11.2853C8.62824 11.3309 8.5742 11.3671 8.5147 11.3918C8.4552 11.4165 8.39142 11.4292 8.327 11.4292C8.26258 11.4292 8.19879 11.4165 8.1393 11.3918C8.0798 11.3671 8.02575 11.3309 7.98026 11.2853L2.10335 5.4084C2.05774 5.36291 2.02156 5.30886 1.99687 5.24936C1.97218 5.18987 1.95947 5.12608 1.95947 5.06166C1.95947 4.99724 1.97218 4.93346 1.99687 4.87396C2.02156 4.81446 2.05774 4.76042 2.10335 4.71492Z" fill="black"/>
</svg>
