<svg width="16" height="16" viewBox="0 0 16 16" fill="none" xmlns="http://www.w3.org/2000/svg">
<path fill-rule="evenodd" clip-rule="evenodd" d="M7.64663 4.64689C7.69308 4.60033 7.74825 4.56339 7.809 4.53818C7.86974 4.51297 7.93486 4.5 8.00063 4.5C8.0664 4.5 8.13152 4.51297 8.19226 4.53818C8.25301 4.56339 8.30819 4.60033 8.35463 4.64689L14.3546 10.6469C14.4485 10.7408 14.5013 10.8681 14.5013 11.0009C14.5013 11.1337 14.4485 11.261 14.3546 11.3549C14.2607 11.4488 14.1334 11.5015 14.0006 11.5015C13.8679 11.5015 13.7405 11.4488 13.6466 11.3549L8.00063 5.70789L2.35463 11.3549C2.26075 11.4488 2.13341 11.5015 2.00063 11.5015C1.86786 11.5015 1.74052 11.4488 1.64663 11.3549C1.55274 11.261 1.5 11.1337 1.5 11.0009C1.5 10.8681 1.55274 10.7408 1.64663 10.6469L7.64663 4.64689Z" fill="black"/>
</svg>
