<svg width="16" height="16" viewBox="0 0 16 16" fill="none" xmlns="http://www.w3.org/2000/svg">
<g clip-path="url(#clip0_1760_5563)">
<path d="M16.0001 8C16.0001 8 13.1226 2.5 8.3267 2.5C3.53084 2.5 0.65332 8 0.65332 8C0.65332 8 3.53084 13.5 8.3267 13.5C13.1226 13.5 16.0001 8 16.0001 8ZM1.77843 8C2.2422 7.26512 2.77562 6.58069 3.37065 5.957C4.60511 4.668 6.29325 3.5 8.3267 3.5C10.3601 3.5 12.0473 4.668 13.2837 5.957C13.8787 6.58069 14.4121 7.26512 14.8759 8C14.8203 8.087 14.7589 8.183 14.6889 8.288C14.3676 8.768 13.8928 9.408 13.2837 10.043C12.0473 11.332 10.3592 12.5 8.3267 12.5C6.29325 12.5 4.60607 11.332 3.3697 10.043C2.77467 9.41931 2.24125 8.73487 1.77747 8H1.77843Z" fill="black"/>
<path d="M8.32658 5.5C7.69061 5.5 7.08069 5.76339 6.63099 6.23223C6.18129 6.70107 5.92865 7.33696 5.92865 8C5.92865 8.66304 6.18129 9.29893 6.63099 9.76777C7.08069 10.2366 7.69061 10.5 8.32658 10.5C8.96256 10.5 9.57248 10.2366 10.0222 9.76777C10.4719 9.29893 10.7245 8.66304 10.7245 8C10.7245 7.33696 10.4719 6.70107 10.0222 6.23223C9.57248 5.76339 8.96256 5.5 8.32658 5.5ZM4.96948 8C4.96948 7.07174 5.32318 6.1815 5.95276 5.52513C6.58233 4.86875 7.43623 4.5 8.32658 4.5C9.21694 4.5 10.0708 4.86875 10.7004 5.52513C11.33 6.1815 11.6837 7.07174 11.6837 8C11.6837 8.92826 11.33 9.8185 10.7004 10.4749C10.0708 11.1313 9.21694 11.5 8.32658 11.5C7.43623 11.5 6.58233 11.1313 5.95276 10.4749C5.32318 9.8185 4.96948 8.92826 4.96948 8Z" fill="black"/>
</g>
<defs>
<clipPath id="clip0_1760_5563">
<rect width="15.3468" height="16" fill="white" transform="translate(0.65332)"/>
</clipPath>
</defs>
</svg>
