<svg width="16" height="17" viewBox="0 0 16 17" fill="none" xmlns="http://www.w3.org/2000/svg">
<path fill-rule="evenodd" clip-rule="evenodd" d="M11.3539 2.14689C11.4005 2.19334 11.4374 2.24852 11.4626 2.30926C11.4878 2.37001 11.5008 2.43513 11.5008 2.50089C11.5008 2.56666 11.4878 2.63178 11.4626 2.69253C11.4374 2.75327 11.4005 2.80845 11.3539 2.85489L5.70692 8.50089L11.3539 14.1469C11.4478 14.2408 11.5006 14.3681 11.5006 14.5009C11.5006 14.6337 11.4478 14.761 11.3539 14.8549C11.26 14.9488 11.1327 15.0015 10.9999 15.0015C10.8671 15.0015 10.7398 14.9488 10.6459 14.8549L4.64592 8.85489C4.59935 8.80845 4.56241 8.75327 4.5372 8.69253C4.512 8.63178 4.49902 8.56666 4.49902 8.50089C4.49902 8.43513 4.512 8.37001 4.5372 8.30926C4.56241 8.24852 4.59935 8.19334 4.64592 8.14689L10.6459 2.14689C10.6924 2.10033 10.7475 2.06339 10.8083 2.03818C10.869 2.01297 10.9342 2 10.9999 2C11.0657 2 11.1308 2.01297 11.1916 2.03818C11.2523 2.06339 11.3075 2.10033 11.3539 2.14689Z" fill="white"/>
</svg>
