<svg width="16" height="16" viewBox="0 0 16 16" fill="none" xmlns="http://www.w3.org/2000/svg">
<path fill-rule="evenodd" clip-rule="evenodd" d="M11.3539 1.64689C11.4005 1.69334 11.4374 1.74852 11.4626 1.80926C11.4878 1.87001 11.5008 1.93513 11.5008 2.00089C11.5008 2.06666 11.4878 2.13178 11.4626 2.19253C11.4374 2.25327 11.4005 2.30845 11.3539 2.35489L5.70692 8.00089L11.3539 13.6469C11.4478 13.7408 11.5006 13.8681 11.5006 14.0009C11.5006 14.1337 11.4478 14.261 11.3539 14.3549C11.26 14.4488 11.1327 14.5015 10.9999 14.5015C10.8671 14.5015 10.7398 14.4488 10.6459 14.3549L4.64592 8.35489C4.59935 8.30845 4.56241 8.25327 4.5372 8.19253C4.512 8.13178 4.49902 8.06666 4.49902 8.00089C4.49902 7.93513 4.512 7.87001 4.5372 7.80926C4.56241 7.74852 4.59935 7.69334 4.64592 7.64689L10.6459 1.64689C10.6924 1.60033 10.7475 1.56339 10.8083 1.53818C10.869 1.51297 10.9342 1.5 10.9999 1.5C11.0657 1.5 11.1308 1.51297 11.1916 1.53818C11.2523 1.56339 11.3075 1.60033 11.3539 1.64689Z" fill="black"/>
</svg>
