<svg width="16" height="17" viewBox="0 0 16 17" fill="none" xmlns="http://www.w3.org/2000/svg">
<g clip-path="url(#clip0_2339_53696)">
<path d="M2.678 12.394C2.7818 12.4982 2.86133 12.624 2.91094 12.7625C2.96055 12.9009 2.97901 13.0486 2.965 13.195C2.89472 13.8726 2.76148 14.5421 2.567 15.195C3.962 14.872 4.814 14.498 5.201 14.302C5.4205 14.1908 5.67329 14.1645 5.911 14.228C6.59243 14.4097 7.29477 14.5011 8 14.5C11.996 14.5 15 11.693 15 8.5C15 5.308 11.996 2.5 8 2.5C4.004 2.5 1 5.308 1 8.5C1 9.968 1.617 11.33 2.678 12.394ZM2.185 16.299C1.94807 16.346 1.71037 16.389 1.472 16.428C1.272 16.46 1.12 16.252 1.199 16.066C1.28779 15.8566 1.36918 15.6441 1.443 15.429L1.446 15.419C1.694 14.699 1.896 13.871 1.97 13.1C0.743 11.87 0 10.26 0 8.5C0 4.634 3.582 1.5 8 1.5C12.418 1.5 16 4.634 16 8.5C16 12.366 12.418 15.5 8 15.5C7.20765 15.5011 6.41859 15.3982 5.653 15.194C5.133 15.457 4.014 15.936 2.185 16.299Z" fill="#1C2026"/>
<path d="M7.06602 7.26145C6.87123 6.95809 6.58324 6.72616 6.24534 6.60051C5.90743 6.47485 5.53788 6.46226 5.19221 6.56463C4.84654 6.667 4.54343 6.8788 4.32845 7.16819C4.11346 7.45759 3.99821 7.80894 4.00002 8.16945C4.0002 8.46798 4.08055 8.76099 4.23266 9.01786C4.38478 9.27473 4.60309 9.48604 4.86478 9.62971C5.12647 9.77338 5.42194 9.84414 5.72032 9.83459C6.0187 9.82505 6.30905 9.73555 6.56102 9.57545C6.43002 9.96445 6.18602 10.3794 5.78402 10.7954C5.70711 10.875 5.66495 10.9819 5.66683 11.0925C5.66776 11.1473 5.67947 11.2014 5.70129 11.2516C5.72311 11.3019 5.75462 11.3474 5.79402 11.3854C5.83342 11.4235 5.87993 11.4535 5.9309 11.4736C5.98187 11.4937 6.03631 11.5036 6.09109 11.5026C6.20174 11.5008 6.30711 11.455 6.38402 11.3754C7.87002 9.83545 7.67702 8.16145 7.06602 7.26345V7.26145ZM11.066 7.26145C10.8712 6.95809 10.5832 6.72616 10.2453 6.60051C9.90743 6.47485 9.53787 6.46226 9.19221 6.56463C8.84654 6.667 8.54343 6.8788 8.32845 7.16819C8.11346 7.45759 7.99821 7.80894 8.00002 8.16945C8.0002 8.46798 8.08055 8.76099 8.23266 9.01786C8.38478 9.27473 8.60309 9.48604 8.86478 9.62971C9.12647 9.77338 9.42194 9.84414 9.72032 9.83459C10.0187 9.82505 10.309 9.73555 10.561 9.57545C10.43 9.96445 10.186 10.3794 9.78402 10.7954C9.74594 10.8348 9.71599 10.8814 9.69588 10.9323C9.67577 10.9833 9.6659 11.0377 9.66683 11.0925C9.66776 11.1473 9.67947 11.2014 9.70129 11.2516C9.72311 11.3019 9.75462 11.3474 9.79402 11.3854C9.83342 11.4235 9.87993 11.4535 9.9309 11.4736C9.98187 11.4937 10.0363 11.5036 10.0911 11.5026C10.1459 11.5017 10.1999 11.49 10.2502 11.4682C10.3005 11.4464 10.3459 11.4148 10.384 11.3754C11.87 9.83545 11.677 8.16145 11.066 7.26345V7.26145Z" fill="#1C2026"/>
</g>
<defs>
<clipPath id="clip0_2339_53696">
<rect width="16" height="16" fill="white" transform="translate(0 0.5)"/>
</clipPath>
</defs>
</svg>
