<svg width="16" height="16" viewBox="0 0 16 16" fill="none" xmlns="http://www.w3.org/2000/svg">
<path fill-rule="evenodd" clip-rule="evenodd" d="M4.64592 1.64592C4.69236 1.59935 4.74754 1.56241 4.80828 1.5372C4.86903 1.512 4.93415 1.49902 4.99992 1.49902C5.06568 1.49902 5.13081 1.512 5.19155 1.5372C5.2523 1.56241 5.30747 1.59935 5.35392 1.64592L11.3539 7.64592C11.4005 7.69236 11.4374 7.74754 11.4626 7.80828C11.4878 7.86903 11.5008 7.93415 11.5008 7.99992C11.5008 8.06568 11.4878 8.13081 11.4626 8.19155C11.4374 8.2523 11.4005 8.30747 11.3539 8.35392L5.35392 14.3539C5.26003 14.4478 5.13269 14.5005 4.99992 14.5005C4.86714 14.5005 4.7398 14.4478 4.64592 14.3539C4.55203 14.26 4.49929 14.1327 4.49929 13.9999C4.49929 13.8671 4.55203 13.7398 4.64592 13.6459L10.2929 7.99992L4.64592 2.35392C4.59935 2.30747 4.56241 2.2523 4.5372 2.19155C4.512 2.13081 4.49902 2.06568 4.49902 1.99992C4.49902 1.93415 4.512 1.86903 4.5372 1.80828C4.56241 1.74754 4.59935 1.69236 4.64592 1.64592Z" fill="black"/>
</svg>
