<svg width="16" height="16" viewBox="0 0 16 16" fill="none" xmlns="http://www.w3.org/2000/svg">
<g clip-path="url(#clip0_505_1921)">
<path d="M11.9163 10.3434C12.8451 9.02206 13.261 7.38386 13.081 5.75652C12.901 4.12918 12.1383 2.63271 10.9454 1.5665C9.75251 0.500289 8.21748 -0.0570284 6.6474 0.00604479C5.07732 0.0691179 3.58798 0.74793 2.47734 1.90668C1.3667 3.06542 0.716663 4.61864 0.657289 6.2556C0.597914 7.89256 1.13358 9.49253 2.15711 10.7354C3.18064 11.9783 4.61655 12.7724 6.17758 12.959C7.73861 13.1455 9.30963 12.7106 10.5763 11.7414H10.5754C10.6041 11.7814 10.6348 11.8194 10.6694 11.8564L14.3622 15.7064C14.542 15.894 14.786 15.9995 15.0405 15.9996C15.2949 15.9997 15.5389 15.8944 15.7189 15.7069C15.8989 15.5194 16.0001 15.265 16.0002 14.9997C16.0003 14.7345 15.8993 14.48 15.7194 14.2924L12.0266 10.4424C11.9923 10.4062 11.9554 10.3727 11.9163 10.3424V10.3434ZM12.1638 6.49937C12.1638 7.22164 12.0273 7.93684 11.7622 8.60413C11.4971 9.27142 11.1085 9.87773 10.6186 10.3885C10.1287 10.8992 9.54718 11.3043 8.90714 11.5807C8.26709 11.8571 7.58109 11.9994 6.88831 11.9994C6.19553 11.9994 5.50953 11.8571 4.86949 11.5807C4.22944 11.3043 3.64788 10.8992 3.15801 10.3885C2.66814 9.87773 2.27955 9.27142 2.01443 8.60413C1.74932 7.93684 1.61287 7.22164 1.61287 6.49937C1.61287 5.04068 2.16867 3.64173 3.15801 2.61028C4.14735 1.57883 5.48918 0.999368 6.88831 0.999368C8.28745 0.999368 9.62928 1.57883 10.6186 2.61028C11.608 3.64173 12.1638 5.04068 12.1638 6.49937Z" fill="black"/>
</g>
<defs>
<clipPath id="clip0_505_1921">
<rect width="15.3468" height="16" fill="white" transform="translate(0.65332)"/>
</clipPath>
</defs>
</svg>
