<svg width="16" height="16" viewBox="0 0 16 16" fill="none" xmlns="http://www.w3.org/2000/svg">
<g clip-path="url(#clip0_1696_23900)">
<path d="M8.05008 9.6C8.38608 9.6 8.55408 9.36 8.60408 8.973C8.64408 8.439 8.80208 8.158 9.45108 7.713C10.1241 7.238 10.5001 6.623 10.5001 5.727C10.5001 4.402 9.58008 3.5 8.23808 3.5C7.21808 3.5 6.44608 3.992 6.13808 4.79C6.04475 5.00795 5.99775 5.24292 6.00008 5.48C6.00008 5.873 6.20308 6.12 6.54508 6.12C6.81708 6.12 7.00008 5.973 7.10908 5.61C7.26708 5.018 7.63408 4.695 8.18308 4.695C8.79308 4.695 9.21308 5.141 9.21308 5.779C9.21308 6.342 9.00508 6.664 8.39108 7.104C7.77208 7.537 7.46508 8.018 7.46508 8.744V8.855C7.46508 9.283 7.67308 9.6 8.05008 9.6Z" fill="#70797A"/>
<path d="M10.2727 2.5122L9.35168 1.5682L10.0667 0.870195L10.6887 1.5072L11.5787 1.4962C11.9639 1.49164 12.3462 1.56415 12.703 1.70948C13.0598 1.85481 13.384 2.07002 13.6564 2.34245C13.9289 2.61489 14.1441 2.93904 14.2894 3.29586C14.4347 3.65267 14.5072 4.03495 14.5027 4.4202L14.4927 5.31019L15.1287 5.9322C15.4041 6.20137 15.623 6.52288 15.7725 6.87784C15.9219 7.23281 15.9989 7.61406 15.9989 7.9992C15.9989 8.38433 15.9219 8.76558 15.7725 9.12055C15.623 9.47551 15.4041 9.79703 15.1287 10.0662L14.4917 10.6882L14.5027 11.5782C14.5072 11.9634 14.4347 12.3457 14.2894 12.7025C14.1441 13.0593 13.9289 13.3835 13.6564 13.6559C13.384 13.9284 13.0598 14.1436 12.703 14.2889C12.3462 14.4342 11.9639 14.5068 11.5787 14.5022L10.6887 14.4922L10.0667 15.1282C9.79751 15.4037 9.476 15.6225 9.12104 15.772C8.76607 15.9214 8.38482 15.9984 7.99968 15.9984C7.61455 15.9984 7.23329 15.9214 6.87833 15.772C6.52337 15.6225 6.20185 15.4037 5.93268 15.1282L5.31068 14.4912L4.42068 14.5022C4.03543 14.5068 3.65316 14.4342 3.29635 14.2889C2.93953 14.1436 2.61537 13.9284 2.34294 13.6559C2.07051 13.3835 1.8553 13.0593 1.70997 12.7025C1.56464 12.3457 1.49212 11.9634 1.49668 11.5782L1.50668 10.6882L0.870684 10.0662C0.595224 9.79703 0.376344 9.47551 0.226907 9.12055C0.0774689 8.76558 0.000488281 8.38433 0.000488281 7.9992C0.000488281 7.61406 0.0774689 7.23281 0.226907 6.87784C0.376344 6.52288 0.595224 6.20137 0.870684 5.9322L1.50768 5.31019L1.49668 4.4202C1.49212 4.03495 1.56464 3.65267 1.70997 3.29586C1.8553 2.93904 2.07051 2.61489 2.34294 2.34245C2.61537 2.07002 2.93953 1.85481 3.29635 1.70948C3.65316 1.56415 4.03543 1.49164 4.42068 1.4962L5.31068 1.5062L5.93268 0.870195C6.20185 0.594736 6.52337 0.375856 6.87833 0.226418C7.23329 0.0769807 7.61455 0 7.99968 0C8.38482 0 8.76607 0.0769807 9.12104 0.226418C9.476 0.375856 9.79751 0.594736 10.0667 0.870195L9.35168 1.5682C9.17564 1.38798 8.96535 1.24478 8.73317 1.14701C8.50099 1.04924 8.25161 0.998875 7.99968 0.998875C7.74776 0.998875 7.49837 1.04924 7.26619 1.14701C7.03401 1.24478 6.82372 1.38798 6.64768 1.5682L5.72768 2.5122L4.40768 2.4962C4.15586 2.49338 3.90602 2.54092 3.67283 2.63602C3.43964 2.73113 3.2278 2.87187 3.04977 3.04999C2.87174 3.22812 2.73111 3.44002 2.63613 3.67326C2.54115 3.9065 2.49374 4.15637 2.49668 4.4082L2.51268 5.7262L1.56868 6.64719C1.38847 6.82323 1.24527 7.03352 1.1475 7.26571C1.04973 7.49789 0.999364 7.74727 0.999364 7.9992C0.999364 8.25112 1.04973 8.5005 1.1475 8.73269C1.24527 8.96487 1.38847 9.17516 1.56868 9.3512L2.51268 10.2712L2.49668 11.5912C2.49387 11.843 2.54141 12.0929 2.63651 12.3261C2.73161 12.5592 2.87236 12.7711 3.05048 12.9491C3.22861 13.1271 3.44051 13.2678 3.67375 13.3628C3.90699 13.4577 4.15686 13.5051 4.40868 13.5022L5.72668 13.4862L6.64768 14.4302C6.82372 14.6104 7.03401 14.7536 7.26619 14.8514C7.49837 14.9491 7.74776 14.9995 7.99968 14.9995C8.25161 14.9995 8.50099 14.9491 8.73317 14.8514C8.96535 14.7536 9.17564 14.6104 9.35168 14.4302L10.2717 13.4862L11.5917 13.5022C11.8435 13.505 12.0934 13.4575 12.3265 13.3624C12.5597 13.2673 12.7716 13.1265 12.9496 12.9484C13.1276 12.7703 13.2683 12.5584 13.3632 12.3251C13.4582 12.0919 13.5056 11.842 13.5027 11.5902L13.4867 10.2722L14.4307 9.3512C14.6109 9.17516 14.7541 8.96487 14.8519 8.73269C14.9496 8.5005 15 8.25112 15 7.9992C15 7.74727 14.9496 7.49789 14.8519 7.26571C14.7541 7.03352 14.6109 6.82323 14.4307 6.64719L13.4867 5.7272L13.5027 4.4072C13.5055 4.15537 13.458 3.90553 13.3629 3.67234C13.2678 3.43915 13.127 3.22731 12.9489 3.04928C12.7708 2.87125 12.5589 2.73062 12.3256 2.63564C12.0924 2.54066 11.8425 2.49325 11.5907 2.4962L10.2727 2.5122Z" fill="#70797A"/>
<path d="M7.00098 11C7.00098 10.7348 7.10633 10.4804 7.29387 10.2929C7.48141 10.1054 7.73576 10 8.00098 10C8.26619 10 8.52055 10.1054 8.70808 10.2929C8.89562 10.4804 9.00098 10.7348 9.00098 11C9.00098 11.2652 8.89562 11.5196 8.70808 11.7071C8.52055 11.8946 8.26619 12 8.00098 12C7.73576 12 7.48141 11.8946 7.29387 11.7071C7.10633 11.5196 7.00098 11.2652 7.00098 11Z" fill="#70797A"/>
</g>
<defs>
<clipPath id="clip0_1696_23900">
<rect width="16" height="16" fill="white"/>
</clipPath>
</defs>
</svg>
