<svg width="16" height="16" viewBox="0 0 16 16" fill="none" xmlns="http://www.w3.org/2000/svg">
<path fill-rule="evenodd" clip-rule="evenodd" d="M14 2.5C14 2.36739 13.9473 2.24021 13.8535 2.14645C13.7597 2.05268 13.6326 2 13.5 2H7.49996C7.36735 2 7.24018 2.05268 7.14641 2.14645C7.05264 2.24021 6.99996 2.36739 6.99996 2.5C6.99996 2.63261 7.05264 2.75979 7.14641 2.85355C7.24018 2.94732 7.36735 3 7.49996 3H12.293L2.14596 13.146C2.09947 13.1925 2.0626 13.2477 2.03744 13.3084C2.01228 13.3692 1.99933 13.4343 1.99933 13.5C1.99933 13.5657 2.01228 13.6308 2.03744 13.6916C2.0626 13.7523 2.09947 13.8075 2.14596 13.854C2.19245 13.9005 2.24764 13.9374 2.30838 13.9625C2.36912 13.9877 2.43422 14.0006 2.49996 14.0006C2.5657 14.0006 2.6308 13.9877 2.69154 13.9625C2.75228 13.9374 2.80747 13.9005 2.85396 13.854L13 3.707V8.5C13 8.63261 13.0526 8.75979 13.1464 8.85355C13.2402 8.94732 13.3674 9 13.5 9C13.6326 9 13.7597 8.94732 13.8535 8.85355C13.9473 8.75979 14 8.63261 14 8.5V2.5Z" fill="#1C2026"/>
</svg>
