<svg width="16" height="16" viewBox="0 0 16 16" fill="none" xmlns="http://www.w3.org/2000/svg">
<path d="M2.678 11.894C2.7818 11.9982 2.86133 12.124 2.91094 12.2625C2.96055 12.4009 2.97901 12.5486 2.965 12.695C2.89472 13.3726 2.76148 14.0421 2.567 14.695C3.962 14.372 4.814 13.998 5.201 13.802C5.4205 13.6908 5.67329 13.6645 5.911 13.728C6.59243 13.9097 7.29477 14.0011 8 14C11.996 14 15 11.193 15 8C15 4.808 11.996 2 8 2C4.004 2 1 4.808 1 8C1 9.468 1.617 10.83 2.678 11.894ZM2.185 15.799C1.94807 15.846 1.71037 15.889 1.472 15.928C1.272 15.96 1.12 15.752 1.199 15.566C1.28779 15.3566 1.36918 15.1441 1.443 14.929L1.446 14.919C1.694 14.199 1.896 13.371 1.97 12.6C0.743 11.37 0 9.76 0 8C0 4.134 3.582 1 8 1C12.418 1 16 4.134 16 8C16 11.866 12.418 15 8 15C7.20765 15.0011 6.41859 14.8982 5.653 14.694C5.133 14.957 4.014 15.436 2.185 15.799Z" fill="#1C2026"/>
<path d="M7.06602 6.76145C6.87123 6.45809 6.58324 6.22616 6.24534 6.10051C5.90743 5.97485 5.53788 5.96226 5.19221 6.06463C4.84654 6.167 4.54343 6.3788 4.32845 6.66819C4.11346 6.95759 3.99821 7.30894 4.00002 7.66945C4.0002 7.96798 4.08055 8.26099 4.23266 8.51786C4.38478 8.77473 4.60309 8.98604 4.86478 9.12971C5.12647 9.27338 5.42194 9.34414 5.72032 9.33459C6.0187 9.32505 6.30905 9.23555 6.56102 9.07545C6.43002 9.46445 6.18602 9.87945 5.78402 10.2954C5.70711 10.375 5.66495 10.4819 5.66683 10.5925C5.66776 10.6473 5.67947 10.7014 5.70129 10.7516C5.72311 10.8019 5.75462 10.8474 5.79402 10.8854C5.83342 10.9235 5.87993 10.9535 5.9309 10.9736C5.98187 10.9937 6.03631 11.0036 6.09109 11.0026C6.20174 11.0008 6.30711 10.955 6.38402 10.8754C7.87002 9.33545 7.67702 7.66145 7.06602 6.76345V6.76145ZM11.066 6.76145C10.8712 6.45809 10.5832 6.22616 10.2453 6.10051C9.90743 5.97485 9.53787 5.96226 9.19221 6.06463C8.84654 6.167 8.54343 6.3788 8.32845 6.66819C8.11346 6.95759 7.99821 7.30894 8.00002 7.66945C8.0002 7.96798 8.08055 8.26099 8.23266 8.51786C8.38478 8.77473 8.60309 8.98604 8.86478 9.12971C9.12647 9.27338 9.42194 9.34414 9.72032 9.33459C10.0187 9.32505 10.309 9.23555 10.561 9.07545C10.43 9.46445 10.186 9.87945 9.78402 10.2954C9.74594 10.3348 9.71599 10.3814 9.69588 10.4323C9.67577 10.4833 9.6659 10.5377 9.66683 10.5925C9.66776 10.6473 9.67947 10.7014 9.70129 10.7516C9.72311 10.8019 9.75462 10.8474 9.79402 10.8854C9.83342 10.9235 9.87993 10.9535 9.9309 10.9736C9.98187 10.9937 10.0363 11.0036 10.0911 11.0026C10.1459 11.0017 10.1999 10.99 10.2502 10.9682C10.3005 10.9464 10.3459 10.9148 10.384 10.8754C11.87 9.33545 11.677 7.66145 11.066 6.76345V6.76145Z" fill="#1C2026"/>
</svg>
