<svg width="22" height="21" viewBox="0 0 22 21" fill="none" xmlns="http://www.w3.org/2000/svg">
<path d="M2.9999 18V8.625L1.1999 10L0.0249023 8.425L10.9999 0L21.9999 8.4L20.7999 10L10.9999 2.5L4.9999 7.1V16H8.9999V18H2.9999ZM16.4999 20.375C15.7999 20.8583 15.0291 21.0625 14.1874 20.9875C13.3457 20.9125 12.6249 20.575 12.0249 19.975C11.4249 19.375 11.0874 18.6542 11.0124 17.8125C10.9374 16.9708 11.1416 16.2 11.6249 15.5C11.1416 14.8 10.9374 14.0292 11.0124 13.1875C11.0874 12.3458 11.4249 11.625 12.0249 11.025C12.6249 10.425 13.3457 10.0875 14.1874 10.0125C15.0291 9.9375 15.7999 10.1417 16.4999 10.625C17.1999 10.1417 17.9707 9.9375 18.8124 10.0125C19.6541 10.0875 20.3749 10.425 20.9749 11.025C21.5749 11.625 21.9124 12.3458 21.9874 13.1875C22.0624 14.0292 21.8582 14.8 21.3749 15.5C21.8582 16.2 22.0624 16.9708 21.9874 17.8125C21.9124 18.6542 21.5749 19.375 20.9749 19.975C20.3749 20.575 19.6541 20.9125 18.8124 20.9875C17.9707 21.0625 17.1999 20.8583 16.4999 20.375ZM16.4999 17.925L17.6499 18.725C17.9499 18.9417 18.2749 19.0333 18.6249 19C18.9749 18.9667 19.2832 18.8167 19.5499 18.55C19.8166 18.2833 19.9666 17.975 19.9999 17.625C20.0332 17.275 19.9416 16.95 19.7249 16.65L18.9249 15.5L19.7249 14.35C19.9416 14.05 20.0332 13.725 19.9999 13.375C19.9666 13.025 19.8166 12.7167 19.5499 12.45C19.2832 12.1833 18.9749 12.0333 18.6249 12C18.2749 11.9667 17.9499 12.0583 17.6499 12.275L16.4999 13.075L15.3499 12.275C15.0499 12.0583 14.7249 11.9667 14.3749 12C14.0249 12.0333 13.7166 12.1833 13.4499 12.45C13.1832 12.7167 13.0332 13.025 12.9999 13.375C12.9666 13.725 13.0582 14.05 13.2749 14.35L14.0749 15.5L13.2749 16.65C13.0582 16.95 12.9666 17.275 12.9999 17.625C13.0332 17.975 13.1832 18.2833 13.4499 18.55C13.7166 18.8167 14.0249 18.9667 14.3749 19C14.7249 19.0333 15.0499 18.9417 15.3499 18.725L16.4999 17.925ZM16.4999 16.75C16.8499 16.75 17.1457 16.6292 17.3874 16.3875C17.6291 16.1458 17.7499 15.85 17.7499 15.5C17.7499 15.15 17.6291 14.8542 17.3874 14.6125C17.1457 14.3708 16.8499 14.25 16.4999 14.25C16.1499 14.25 15.8541 14.3708 15.6124 14.6125C15.3707 14.8542 15.2499 15.15 15.2499 15.5C15.2499 15.85 15.3707 16.1458 15.6124 16.3875C15.8541 16.6292 16.1499 16.75 16.4999 16.75Z" fill="#189FAC"/>
</svg>
