<svg width="11" height="10" viewBox="0 0 11 10" fill="none" xmlns="http://www.w3.org/2000/svg">
<path d="M8.71233 1.21309C8.88727 1.03968 9.12343 0.942089 9.36975 0.94141C9.61607 0.94073 9.85276 1.03702 10.0286 1.20946C10.2045 1.38191 10.3055 1.61664 10.3097 1.86293C10.3139 2.10922 10.221 2.34726 10.0511 2.52559L5.06108 8.7631C4.97532 8.85547 4.87181 8.9296 4.75675 8.98105C4.64168 9.03251 4.51742 9.06023 4.3914 9.06257C4.26537 9.0649 4.14017 9.0418 4.02328 8.99464C3.90639 8.94748 3.8002 8.87723 3.71108 8.78809L0.404831 5.48059C0.312722 5.39477 0.238845 5.29127 0.187605 5.17627C0.136365 5.06127 0.108812 4.93713 0.106591 4.81125C0.10437 4.68537 0.127526 4.56033 0.174678 4.4436C0.221829 4.32686 0.29201 4.22082 0.381033 4.1318C0.470057 4.04277 0.576099 3.97259 0.692834 3.92544C0.809569 3.87829 0.934606 3.85513 1.06048 3.85736C1.18636 3.85958 1.3105 3.88713 1.4255 3.93837C1.5405 3.98961 1.644 4.06349 1.72983 4.15559L4.34733 6.77184L8.68858 1.24059C8.69633 1.23091 8.70468 1.22172 8.71358 1.21309H8.71233Z" fill="white"/>
</svg>
