<svg width="20" height="20" viewBox="0 0 20 20" fill="none" xmlns="http://www.w3.org/2000/svg">
<path d="M7.075 12.25L10 10.475L12.925 12.25L12.15 8.925L14.75 6.675L11.325 6.4L10 3.25L8.675 6.4L5.25 6.675L7.85 8.925L7.075 12.25ZM0 20V2C0 1.45 0.195833 0.979167 0.5875 0.5875C0.979167 0.195833 1.45 0 2 0H18C18.55 0 19.0208 0.195833 19.4125 0.5875C19.8042 0.979167 20 1.45 20 2V14C20 14.55 19.8042 15.0208 19.4125 15.4125C19.0208 15.8042 18.55 16 18 16H4L0 20ZM3.15 14H18V2H2V15.125L3.15 14Z" fill="#525E7A"/>
</svg>
